<mxfile host="Electron" agent="Mozilla/5.0 (X11; Linux x86_64) AppleWebKit/537.36 (KHTML, like Gecko) draw.io/27.0.9 Chrome/134.0.6998.205 Electron/35.4.0 Safari/537.36" version="27.0.9">
  <diagram name="Page-1" id="lPMp5aUnKdpe0wWXmVGg">
    <mxGraphModel dx="2528" dy="975" grid="1" gridSize="10" guides="1" tooltips="1" connect="1" arrows="1" fold="1" page="1" pageScale="1" pageWidth="850" pageHeight="1100" math="0" shadow="0">
      <root>
        <mxCell id="0" />
        <mxCell id="1" parent="0" />
        <mxCell id="sP4UEjbEszIV1HpJ8b8q-1" value="" style="ellipse;html=1;shape=startState;fillColor=#000000;strokeColor=#ff0000;" vertex="1" parent="1">
          <mxGeometry x="165" y="200" width="30" height="30" as="geometry" />
        </mxCell>
        <mxCell id="sP4UEjbEszIV1HpJ8b8q-2" value="" style="edgeStyle=orthogonalEdgeStyle;html=1;verticalAlign=bottom;endArrow=open;endSize=8;strokeColor=#ff0000;rounded=0;" edge="1" source="sP4UEjbEszIV1HpJ8b8q-1" parent="1">
          <mxGeometry relative="1" as="geometry">
            <mxPoint x="180" y="290" as="targetPoint" />
          </mxGeometry>
        </mxCell>
        <mxCell id="sP4UEjbEszIV1HpJ8b8q-69" style="rounded=0;orthogonalLoop=1;jettySize=auto;html=1;exitX=1;exitY=1;exitDx=0;exitDy=0;entryX=0;entryY=0.5;entryDx=0;entryDy=0;dashed=1;strokeColor=#FFB366;" edge="1" parent="1" source="sP4UEjbEszIV1HpJ8b8q-3" target="sP4UEjbEszIV1HpJ8b8q-68">
          <mxGeometry relative="1" as="geometry" />
        </mxCell>
        <mxCell id="sP4UEjbEszIV1HpJ8b8q-70" value="Get user state" style="edgeLabel;html=1;align=center;verticalAlign=middle;resizable=0;points=[];rotation=12;fontColor=#FFB366;" vertex="1" connectable="0" parent="sP4UEjbEszIV1HpJ8b8q-69">
          <mxGeometry x="0.0948" y="-3" relative="1" as="geometry">
            <mxPoint x="7" y="-10" as="offset" />
          </mxGeometry>
        </mxCell>
        <mxCell id="sP4UEjbEszIV1HpJ8b8q-3" value="Login page&lt;div&gt;(show user to select)&lt;/div&gt;" style="rounded=1;whiteSpace=wrap;html=1;" vertex="1" parent="1">
          <mxGeometry x="120" y="290" width="120" height="60" as="geometry" />
        </mxCell>
        <mxCell id="sP4UEjbEszIV1HpJ8b8q-62" style="rounded=0;orthogonalLoop=1;jettySize=auto;html=1;exitX=0;exitY=0.25;exitDx=0;exitDy=0;entryX=1;entryY=0.5;entryDx=0;entryDy=0;dashed=1;strokeColor=#FFB366;" edge="1" parent="1" source="sP4UEjbEszIV1HpJ8b8q-4" target="sP4UEjbEszIV1HpJ8b8q-61">
          <mxGeometry relative="1" as="geometry" />
        </mxCell>
        <mxCell id="sP4UEjbEszIV1HpJ8b8q-4" value="Overview page&lt;div&gt;(personal ranking)&lt;/div&gt;" style="rounded=1;whiteSpace=wrap;html=1;" vertex="1" parent="1">
          <mxGeometry x="120" y="440" width="120" height="60" as="geometry" />
        </mxCell>
        <mxCell id="sP4UEjbEszIV1HpJ8b8q-5" value="" style="edgeStyle=orthogonalEdgeStyle;html=1;verticalAlign=bottom;endArrow=open;endSize=8;strokeColor=#ff0000;rounded=0;exitX=0.5;exitY=1;exitDx=0;exitDy=0;entryX=0.5;entryY=0;entryDx=0;entryDy=0;" edge="1" parent="1" source="sP4UEjbEszIV1HpJ8b8q-3" target="sP4UEjbEszIV1HpJ8b8q-4">
          <mxGeometry relative="1" as="geometry">
            <mxPoint x="260" y="370" as="targetPoint" />
            <mxPoint x="260" y="310" as="sourcePoint" />
          </mxGeometry>
        </mxCell>
        <mxCell id="sP4UEjbEszIV1HpJ8b8q-6" value="Select user&lt;div&gt;[save user id]&lt;/div&gt;" style="edgeLabel;html=1;align=center;verticalAlign=middle;resizable=0;points=[];fontColor=#FF0000;" vertex="1" connectable="0" parent="sP4UEjbEszIV1HpJ8b8q-5">
          <mxGeometry x="-0.0619" y="-1" relative="1" as="geometry">
            <mxPoint x="41" as="offset" />
          </mxGeometry>
        </mxCell>
        <mxCell id="sP4UEjbEszIV1HpJ8b8q-7" value="" style="endArrow=none;dashed=1;html=1;dashPattern=1 3;strokeWidth=2;rounded=0;strokeColor=#999999;" edge="1" parent="1">
          <mxGeometry width="50" height="50" relative="1" as="geometry">
            <mxPoint x="440" y="1080" as="sourcePoint" />
            <mxPoint x="440" y="100" as="targetPoint" />
          </mxGeometry>
        </mxCell>
        <mxCell id="sP4UEjbEszIV1HpJ8b8q-8" value="Users" style="text;html=1;align=center;verticalAlign=middle;resizable=0;points=[];autosize=1;strokeColor=none;fillColor=none;" vertex="1" parent="1">
          <mxGeometry x="155" y="160" width="50" height="30" as="geometry" />
        </mxCell>
        <mxCell id="sP4UEjbEszIV1HpJ8b8q-9" value="Host" style="text;html=1;align=center;verticalAlign=middle;resizable=0;points=[];autosize=1;strokeColor=none;fillColor=none;" vertex="1" parent="1">
          <mxGeometry x="675" y="170" width="50" height="30" as="geometry" />
        </mxCell>
        <mxCell id="sP4UEjbEszIV1HpJ8b8q-10" value="" style="ellipse;html=1;shape=startState;fillColor=#000000;strokeColor=#ff0000;" vertex="1" parent="1">
          <mxGeometry x="685" y="200" width="30" height="30" as="geometry" />
        </mxCell>
        <mxCell id="sP4UEjbEszIV1HpJ8b8q-11" value="" style="edgeStyle=orthogonalEdgeStyle;html=1;verticalAlign=bottom;endArrow=open;endSize=8;strokeColor=#ff0000;rounded=0;entryX=0.5;entryY=0;entryDx=0;entryDy=0;exitX=0.5;exitY=1;exitDx=0;exitDy=0;" edge="1" parent="1" source="sP4UEjbEszIV1HpJ8b8q-10" target="sP4UEjbEszIV1HpJ8b8q-12">
          <mxGeometry relative="1" as="geometry">
            <mxPoint x="699.58" y="290" as="targetPoint" />
            <mxPoint x="699.58" y="230" as="sourcePoint" />
            <Array as="points" />
          </mxGeometry>
        </mxCell>
        <mxCell id="sP4UEjbEszIV1HpJ8b8q-12" value="Home page&lt;div&gt;(qr code)&lt;/div&gt;" style="rounded=1;whiteSpace=wrap;html=1;" vertex="1" parent="1">
          <mxGeometry x="640" y="290" width="120" height="60" as="geometry" />
        </mxCell>
        <mxCell id="sP4UEjbEszIV1HpJ8b8q-13" value="" style="endArrow=classic;html=1;rounded=0;exitX=0;exitY=0.5;exitDx=0;exitDy=0;entryX=1;entryY=0.5;entryDx=0;entryDy=0;dashed=1;dashPattern=8 8;strokeColor=#3333FF;" edge="1" parent="1" source="sP4UEjbEszIV1HpJ8b8q-12" target="sP4UEjbEszIV1HpJ8b8q-3">
          <mxGeometry width="50" height="50" relative="1" as="geometry">
            <mxPoint x="370" y="370" as="sourcePoint" />
            <mxPoint x="420" y="320" as="targetPoint" />
          </mxGeometry>
        </mxCell>
        <mxCell id="sP4UEjbEszIV1HpJ8b8q-14" value="Qr code provides url to login page" style="edgeLabel;html=1;align=center;verticalAlign=middle;resizable=0;points=[];fontColor=#3333FF;" vertex="1" connectable="0" parent="sP4UEjbEszIV1HpJ8b8q-13">
          <mxGeometry x="-0.3725" y="3" relative="1" as="geometry">
            <mxPoint x="-74" y="-13" as="offset" />
          </mxGeometry>
        </mxCell>
        <mxCell id="sP4UEjbEszIV1HpJ8b8q-17" value="Overview page&lt;div&gt;(all rankings + etappe start)&lt;/div&gt;" style="rounded=1;whiteSpace=wrap;html=1;" vertex="1" parent="1">
          <mxGeometry x="640" y="440" width="120" height="60" as="geometry" />
        </mxCell>
        <mxCell id="sP4UEjbEszIV1HpJ8b8q-18" value="" style="edgeStyle=orthogonalEdgeStyle;html=1;verticalAlign=bottom;endArrow=open;endSize=8;strokeColor=#ff0000;rounded=0;exitX=0.5;exitY=1;exitDx=0;exitDy=0;entryX=0.5;entryY=0;entryDx=0;entryDy=0;" edge="1" parent="1" source="sP4UEjbEszIV1HpJ8b8q-12" target="sP4UEjbEszIV1HpJ8b8q-17">
          <mxGeometry relative="1" as="geometry">
            <mxPoint x="180" y="520" as="targetPoint" />
            <mxPoint x="180" y="380" as="sourcePoint" />
          </mxGeometry>
        </mxCell>
        <mxCell id="sP4UEjbEszIV1HpJ8b8q-19" value="Start" style="edgeLabel;html=1;align=center;verticalAlign=middle;resizable=0;points=[];fontColor=#FF0000;" vertex="1" connectable="0" parent="sP4UEjbEszIV1HpJ8b8q-18">
          <mxGeometry x="-0.0619" y="-1" relative="1" as="geometry">
            <mxPoint x="21" as="offset" />
          </mxGeometry>
        </mxCell>
        <mxCell id="sP4UEjbEszIV1HpJ8b8q-20" value="" style="endArrow=classic;html=1;rounded=0;exitX=1;exitY=0.5;exitDx=0;exitDy=0;entryX=0;entryY=0.5;entryDx=0;entryDy=0;dashed=1;dashPattern=8 8;strokeColor=#3333FF;" edge="1" parent="1" source="sP4UEjbEszIV1HpJ8b8q-4" target="sP4UEjbEszIV1HpJ8b8q-17">
          <mxGeometry width="50" height="50" relative="1" as="geometry">
            <mxPoint x="760" y="290" as="sourcePoint" />
            <mxPoint x="360" y="290" as="targetPoint" />
          </mxGeometry>
        </mxCell>
        <mxCell id="sP4UEjbEszIV1HpJ8b8q-21" value="Wait for host to start etappe" style="edgeLabel;html=1;align=center;verticalAlign=middle;resizable=0;points=[];fontColor=#3333FF;" vertex="1" connectable="0" parent="sP4UEjbEszIV1HpJ8b8q-20">
          <mxGeometry x="-0.3725" y="3" relative="1" as="geometry">
            <mxPoint x="74" y="-13" as="offset" />
          </mxGeometry>
        </mxCell>
        <mxCell id="sP4UEjbEszIV1HpJ8b8q-22" value="Etappe page&lt;div&gt;(show etappe + timer (with button))&lt;/div&gt;" style="rounded=1;whiteSpace=wrap;html=1;" vertex="1" parent="1">
          <mxGeometry x="640" y="590" width="120" height="60" as="geometry" />
        </mxCell>
        <mxCell id="sP4UEjbEszIV1HpJ8b8q-25" value="" style="edgeStyle=orthogonalEdgeStyle;html=1;verticalAlign=bottom;endArrow=open;endSize=8;strokeColor=#ff0000;rounded=0;exitX=0.5;exitY=1;exitDx=0;exitDy=0;entryX=0.5;entryY=0;entryDx=0;entryDy=0;" edge="1" parent="1" source="sP4UEjbEszIV1HpJ8b8q-17" target="sP4UEjbEszIV1HpJ8b8q-22">
          <mxGeometry relative="1" as="geometry">
            <mxPoint x="740" y="570" as="targetPoint" />
            <mxPoint x="699.58" y="500" as="sourcePoint" />
          </mxGeometry>
        </mxCell>
        <mxCell id="sP4UEjbEszIV1HpJ8b8q-26" value="Select etappe" style="edgeLabel;html=1;align=center;verticalAlign=middle;resizable=0;points=[];fontColor=#FF0000;" vertex="1" connectable="0" parent="sP4UEjbEszIV1HpJ8b8q-25">
          <mxGeometry x="-0.0619" y="-1" relative="1" as="geometry">
            <mxPoint x="41" as="offset" />
          </mxGeometry>
        </mxCell>
        <mxCell id="sP4UEjbEszIV1HpJ8b8q-63" style="rounded=0;orthogonalLoop=1;jettySize=auto;html=1;exitX=0;exitY=0.5;exitDx=0;exitDy=0;dashed=1;strokeColor=#FFB366;" edge="1" parent="1" source="sP4UEjbEszIV1HpJ8b8q-28">
          <mxGeometry relative="1" as="geometry">
            <mxPoint x="-20" y="480" as="targetPoint" />
          </mxGeometry>
        </mxCell>
        <mxCell id="sP4UEjbEszIV1HpJ8b8q-28" value="Etappe page&lt;div&gt;(buttons disabled)&lt;/div&gt;" style="rounded=1;whiteSpace=wrap;html=1;" vertex="1" parent="1">
          <mxGeometry x="120" y="590" width="120" height="60" as="geometry" />
        </mxCell>
        <mxCell id="sP4UEjbEszIV1HpJ8b8q-29" value="" style="edgeStyle=orthogonalEdgeStyle;html=1;verticalAlign=bottom;endArrow=open;endSize=8;strokeColor=#ff0000;rounded=0;exitX=0.5;exitY=1;exitDx=0;exitDy=0;entryX=0.5;entryY=0;entryDx=0;entryDy=0;" edge="1" parent="1" target="sP4UEjbEszIV1HpJ8b8q-28" source="sP4UEjbEszIV1HpJ8b8q-4">
          <mxGeometry relative="1" as="geometry">
            <mxPoint x="210" y="580" as="targetPoint" />
            <mxPoint x="180" y="500" as="sourcePoint" />
          </mxGeometry>
        </mxCell>
        <mxCell id="sP4UEjbEszIV1HpJ8b8q-30" value="Host starts etappe" style="edgeLabel;html=1;align=center;verticalAlign=middle;resizable=0;points=[];fontColor=#FF0000;" vertex="1" connectable="0" parent="sP4UEjbEszIV1HpJ8b8q-29">
          <mxGeometry x="-0.0619" y="-1" relative="1" as="geometry">
            <mxPoint x="51" y="-2" as="offset" />
          </mxGeometry>
        </mxCell>
        <mxCell id="sP4UEjbEszIV1HpJ8b8q-31" value="" style="endArrow=classic;html=1;rounded=0;dashed=1;dashPattern=8 8;strokeColor=#3333FF;" edge="1" parent="1">
          <mxGeometry width="50" height="50" relative="1" as="geometry">
            <mxPoint x="700" y="550" as="sourcePoint" />
            <mxPoint x="180" y="550" as="targetPoint" />
          </mxGeometry>
        </mxCell>
        <mxCell id="sP4UEjbEszIV1HpJ8b8q-32" value="Notify users know the etappe is going to start" style="edgeLabel;html=1;align=center;verticalAlign=middle;resizable=0;points=[];fontColor=#3333FF;" vertex="1" connectable="0" parent="sP4UEjbEszIV1HpJ8b8q-31">
          <mxGeometry x="-0.3725" y="3" relative="1" as="geometry">
            <mxPoint x="-97" y="-13" as="offset" />
          </mxGeometry>
        </mxCell>
        <mxCell id="sP4UEjbEszIV1HpJ8b8q-53" style="edgeStyle=orthogonalEdgeStyle;rounded=0;orthogonalLoop=1;jettySize=auto;html=1;entryX=1;entryY=0.5;entryDx=0;entryDy=0;strokeColor=#FF0000;" edge="1" parent="1" source="sP4UEjbEszIV1HpJ8b8q-33" target="sP4UEjbEszIV1HpJ8b8q-17">
          <mxGeometry relative="1" as="geometry">
            <Array as="points">
              <mxPoint x="840" y="770" />
              <mxPoint x="840" y="470" />
            </Array>
          </mxGeometry>
        </mxCell>
        <mxCell id="sP4UEjbEszIV1HpJ8b8q-54" value="Last user finished" style="edgeLabel;html=1;align=center;verticalAlign=middle;resizable=0;points=[];fontColor=#FF0000;" vertex="1" connectable="0" parent="sP4UEjbEszIV1HpJ8b8q-53">
          <mxGeometry x="0.0696" y="1" relative="1" as="geometry">
            <mxPoint x="51" y="16" as="offset" />
          </mxGeometry>
        </mxCell>
        <mxCell id="sP4UEjbEszIV1HpJ8b8q-33" value="Etappe page&lt;div&gt;(show etappe + timer running + results)&lt;/div&gt;" style="rounded=1;whiteSpace=wrap;html=1;" vertex="1" parent="1">
          <mxGeometry x="640" y="740" width="120" height="60" as="geometry" />
        </mxCell>
        <mxCell id="sP4UEjbEszIV1HpJ8b8q-34" value="" style="edgeStyle=orthogonalEdgeStyle;html=1;verticalAlign=bottom;endArrow=open;endSize=8;strokeColor=#ff0000;rounded=0;exitX=0.5;exitY=1;exitDx=0;exitDy=0;entryX=0.5;entryY=0;entryDx=0;entryDy=0;" edge="1" parent="1" target="sP4UEjbEszIV1HpJ8b8q-33">
          <mxGeometry relative="1" as="geometry">
            <mxPoint x="740" y="720" as="targetPoint" />
            <mxPoint x="700" y="650" as="sourcePoint" />
          </mxGeometry>
        </mxCell>
        <mxCell id="sP4UEjbEszIV1HpJ8b8q-35" value="Start etappe (timer)" style="edgeLabel;html=1;align=center;verticalAlign=middle;resizable=0;points=[];fontColor=#FF0000;" vertex="1" connectable="0" parent="sP4UEjbEszIV1HpJ8b8q-34">
          <mxGeometry x="-0.0619" y="-1" relative="1" as="geometry">
            <mxPoint x="55" as="offset" />
          </mxGeometry>
        </mxCell>
        <mxCell id="sP4UEjbEszIV1HpJ8b8q-64" style="rounded=0;orthogonalLoop=1;jettySize=auto;html=1;exitX=0;exitY=0.5;exitDx=0;exitDy=0;dashed=1;strokeColor=#FFB366;" edge="1" parent="1" source="sP4UEjbEszIV1HpJ8b8q-36">
          <mxGeometry relative="1" as="geometry">
            <mxPoint x="-20" y="480" as="targetPoint" />
          </mxGeometry>
        </mxCell>
        <mxCell id="sP4UEjbEszIV1HpJ8b8q-36" value="Etappe page&lt;div&gt;(buttons enabled)&lt;/div&gt;" style="rounded=1;whiteSpace=wrap;html=1;" vertex="1" parent="1">
          <mxGeometry x="120" y="740" width="120" height="60" as="geometry" />
        </mxCell>
        <mxCell id="sP4UEjbEszIV1HpJ8b8q-37" value="" style="edgeStyle=orthogonalEdgeStyle;html=1;verticalAlign=bottom;endArrow=open;endSize=8;strokeColor=#ff0000;rounded=0;exitX=0.5;exitY=1;exitDx=0;exitDy=0;entryX=0.5;entryY=0;entryDx=0;entryDy=0;" edge="1" parent="1" target="sP4UEjbEszIV1HpJ8b8q-36" source="sP4UEjbEszIV1HpJ8b8q-28">
          <mxGeometry relative="1" as="geometry">
            <mxPoint x="210" y="730" as="targetPoint" />
            <mxPoint x="180" y="650" as="sourcePoint" />
          </mxGeometry>
        </mxCell>
        <mxCell id="sP4UEjbEszIV1HpJ8b8q-38" value="Host starts timer" style="edgeLabel;html=1;align=center;verticalAlign=middle;resizable=0;points=[];fontColor=#FF0000;" vertex="1" connectable="0" parent="sP4UEjbEszIV1HpJ8b8q-37">
          <mxGeometry x="-0.0619" y="-1" relative="1" as="geometry">
            <mxPoint x="51" y="-2" as="offset" />
          </mxGeometry>
        </mxCell>
        <mxCell id="sP4UEjbEszIV1HpJ8b8q-39" value="" style="endArrow=classic;html=1;rounded=0;dashed=1;dashPattern=8 8;strokeColor=#3333FF;" edge="1" parent="1">
          <mxGeometry width="50" height="50" relative="1" as="geometry">
            <mxPoint x="700" y="700" as="sourcePoint" />
            <mxPoint x="180" y="700" as="targetPoint" />
          </mxGeometry>
        </mxCell>
        <mxCell id="sP4UEjbEszIV1HpJ8b8q-40" value="Notify users that the etappe started" style="edgeLabel;html=1;align=center;verticalAlign=middle;resizable=0;points=[];fontColor=#3333FF;" vertex="1" connectable="0" parent="sP4UEjbEszIV1HpJ8b8q-39">
          <mxGeometry x="-0.3725" y="3" relative="1" as="geometry">
            <mxPoint x="-97" y="-13" as="offset" />
          </mxGeometry>
        </mxCell>
        <mxCell id="sP4UEjbEszIV1HpJ8b8q-41" value="" style="edgeStyle=elbowEdgeStyle;html=1;verticalAlign=bottom;endArrow=open;endSize=8;strokeColor=#ff0000;rounded=1;exitX=1;exitY=0.25;exitDx=0;exitDy=0;entryX=1;entryY=0.75;entryDx=0;entryDy=0;elbow=vertical;curved=0;" edge="1" parent="1" source="sP4UEjbEszIV1HpJ8b8q-36" target="sP4UEjbEszIV1HpJ8b8q-36">
          <mxGeometry relative="1" as="geometry">
            <mxPoint x="260" y="800" as="targetPoint" />
            <mxPoint x="260" y="770" as="sourcePoint" />
            <Array as="points">
              <mxPoint x="270" y="770" />
            </Array>
          </mxGeometry>
        </mxCell>
        <mxCell id="sP4UEjbEszIV1HpJ8b8q-42" value="intermediate objective complete&lt;div&gt;[enable next button]&lt;/div&gt;" style="edgeLabel;html=1;align=center;verticalAlign=middle;resizable=0;points=[];fontColor=#FF0000;" vertex="1" connectable="0" parent="sP4UEjbEszIV1HpJ8b8q-41">
          <mxGeometry x="-0.0619" y="-1" relative="1" as="geometry">
            <mxPoint x="82" as="offset" />
          </mxGeometry>
        </mxCell>
        <mxCell id="sP4UEjbEszIV1HpJ8b8q-43" value="" style="endArrow=classic;html=1;rounded=0;exitX=1;exitY=0.5;exitDx=0;exitDy=0;entryX=0;entryY=0.5;entryDx=0;entryDy=0;dashed=1;dashPattern=8 8;strokeColor=#3333FF;" edge="1" parent="1">
          <mxGeometry width="50" height="50" relative="1" as="geometry">
            <mxPoint x="240" y="750" as="sourcePoint" />
            <mxPoint x="640" y="750" as="targetPoint" />
          </mxGeometry>
        </mxCell>
        <mxCell id="sP4UEjbEszIV1HpJ8b8q-44" value="Notify host objective is completed [user id]" style="edgeLabel;html=1;align=center;verticalAlign=middle;resizable=0;points=[];fontColor=#3333FF;" vertex="1" connectable="0" parent="sP4UEjbEszIV1HpJ8b8q-43">
          <mxGeometry x="-0.3725" y="3" relative="1" as="geometry">
            <mxPoint x="74" y="-7" as="offset" />
          </mxGeometry>
        </mxCell>
        <mxCell id="sP4UEjbEszIV1HpJ8b8q-45" value="" style="edgeStyle=elbowEdgeStyle;html=1;verticalAlign=bottom;endArrow=open;endSize=8;strokeColor=#ff0000;rounded=1;exitX=0;exitY=0.25;exitDx=0;exitDy=0;elbow=vertical;curved=0;entryX=0;entryY=0.75;entryDx=0;entryDy=0;" edge="1" parent="1" source="sP4UEjbEszIV1HpJ8b8q-33" target="sP4UEjbEszIV1HpJ8b8q-33">
          <mxGeometry relative="1" as="geometry">
            <mxPoint x="560" y="790" as="targetPoint" />
            <mxPoint x="470" y="840" as="sourcePoint" />
            <Array as="points">
              <mxPoint x="590" y="770" />
            </Array>
          </mxGeometry>
        </mxCell>
        <mxCell id="sP4UEjbEszIV1HpJ8b8q-46" value="Update results&lt;div&gt;when notified&lt;/div&gt;" style="edgeLabel;html=1;align=center;verticalAlign=middle;resizable=0;points=[];fontColor=#FF0000;" vertex="1" connectable="0" parent="sP4UEjbEszIV1HpJ8b8q-45">
          <mxGeometry x="-0.0619" y="-1" relative="1" as="geometry">
            <mxPoint x="-53" y="2" as="offset" />
          </mxGeometry>
        </mxCell>
        <mxCell id="sP4UEjbEszIV1HpJ8b8q-55" style="edgeStyle=orthogonalEdgeStyle;rounded=0;orthogonalLoop=1;jettySize=auto;html=1;entryX=0;entryY=0.5;entryDx=0;entryDy=0;fontColor=#FF0000;strokeColor=#FF0000;" edge="1" parent="1" source="sP4UEjbEszIV1HpJ8b8q-48" target="sP4UEjbEszIV1HpJ8b8q-4">
          <mxGeometry relative="1" as="geometry">
            <Array as="points">
              <mxPoint x="80" y="920" />
              <mxPoint x="80" y="470" />
            </Array>
          </mxGeometry>
        </mxCell>
        <mxCell id="sP4UEjbEszIV1HpJ8b8q-56" value="Hosts goes to overview page" style="edgeLabel;html=1;align=center;verticalAlign=middle;resizable=0;points=[];fontColor=#FF0000;" vertex="1" connectable="0" parent="sP4UEjbEszIV1HpJ8b8q-55">
          <mxGeometry x="0.1233" y="1" relative="1" as="geometry">
            <mxPoint x="-79" y="18" as="offset" />
          </mxGeometry>
        </mxCell>
        <mxCell id="sP4UEjbEszIV1HpJ8b8q-65" style="rounded=0;orthogonalLoop=1;jettySize=auto;html=1;exitX=0;exitY=0.25;exitDx=0;exitDy=0;entryX=1;entryY=0.5;entryDx=0;entryDy=0;dashed=1;strokeColor=#FFB366;" edge="1" parent="1" source="sP4UEjbEszIV1HpJ8b8q-48" target="sP4UEjbEszIV1HpJ8b8q-61">
          <mxGeometry relative="1" as="geometry" />
        </mxCell>
        <mxCell id="sP4UEjbEszIV1HpJ8b8q-48" value="Finish page" style="rounded=1;whiteSpace=wrap;html=1;" vertex="1" parent="1">
          <mxGeometry x="120" y="890" width="120" height="60" as="geometry" />
        </mxCell>
        <mxCell id="sP4UEjbEszIV1HpJ8b8q-49" value="" style="edgeStyle=orthogonalEdgeStyle;html=1;verticalAlign=bottom;endArrow=open;endSize=8;strokeColor=#ff0000;rounded=0;exitX=0.5;exitY=1;exitDx=0;exitDy=0;entryX=0.5;entryY=0;entryDx=0;entryDy=0;" edge="1" parent="1" target="sP4UEjbEszIV1HpJ8b8q-48">
          <mxGeometry relative="1" as="geometry">
            <mxPoint x="210" y="880" as="targetPoint" />
            <mxPoint x="180" y="800" as="sourcePoint" />
          </mxGeometry>
        </mxCell>
        <mxCell id="sP4UEjbEszIV1HpJ8b8q-50" value="Finish triggerd&lt;div&gt;[stop timer]&lt;/div&gt;" style="edgeLabel;html=1;align=center;verticalAlign=middle;resizable=0;points=[];fontColor=#FF0000;" vertex="1" connectable="0" parent="sP4UEjbEszIV1HpJ8b8q-49">
          <mxGeometry x="-0.0619" y="-1" relative="1" as="geometry">
            <mxPoint x="51" y="-2" as="offset" />
          </mxGeometry>
        </mxCell>
        <mxCell id="sP4UEjbEszIV1HpJ8b8q-51" value="" style="endArrow=classic;html=1;rounded=0;exitX=0.5;exitY=1;exitDx=0;exitDy=0;entryX=1;entryY=0.5;entryDx=0;entryDy=0;dashed=1;dashPattern=8 8;strokeColor=#3333FF;" edge="1" parent="1" source="sP4UEjbEszIV1HpJ8b8q-33" target="sP4UEjbEszIV1HpJ8b8q-48">
          <mxGeometry width="50" height="50" relative="1" as="geometry">
            <mxPoint x="490" y="930" as="sourcePoint" />
            <mxPoint x="890" y="930" as="targetPoint" />
            <Array as="points">
              <mxPoint x="700" y="920" />
            </Array>
          </mxGeometry>
        </mxCell>
        <mxCell id="sP4UEjbEszIV1HpJ8b8q-52" value="Wait until last user is finished" style="edgeLabel;html=1;align=center;verticalAlign=middle;resizable=0;points=[];fontColor=#3333FF;rotation=0;" vertex="1" connectable="0" parent="sP4UEjbEszIV1HpJ8b8q-51">
          <mxGeometry x="-0.3725" y="3" relative="1" as="geometry">
            <mxPoint x="-198" y="-13" as="offset" />
          </mxGeometry>
        </mxCell>
        <mxCell id="sP4UEjbEszIV1HpJ8b8q-57" value="" style="endArrow=classic;html=1;rounded=0;dashed=1;dashPattern=8 8;strokeColor=#3333FF;" edge="1" parent="1">
          <mxGeometry width="50" height="50" relative="1" as="geometry">
            <mxPoint x="840" y="770" as="sourcePoint" />
            <mxPoint x="80" y="920" as="targetPoint" />
            <Array as="points">
              <mxPoint x="840" y="990" />
              <mxPoint x="80" y="990" />
            </Array>
          </mxGeometry>
        </mxCell>
        <mxCell id="sP4UEjbEszIV1HpJ8b8q-58" value="Notify users etappe is done" style="edgeLabel;html=1;align=center;verticalAlign=middle;resizable=0;points=[];fontColor=#3333FF;rotation=0;" vertex="1" connectable="0" parent="sP4UEjbEszIV1HpJ8b8q-57">
          <mxGeometry x="-0.3725" y="3" relative="1" as="geometry">
            <mxPoint x="-291" y="-13" as="offset" />
          </mxGeometry>
        </mxCell>
        <mxCell id="sP4UEjbEszIV1HpJ8b8q-59" value="" style="endArrow=classic;html=1;rounded=0;entryX=0.25;entryY=1;entryDx=0;entryDy=0;dashed=1;dashPattern=8 8;strokeColor=#3333FF;" edge="1" parent="1" target="sP4UEjbEszIV1HpJ8b8q-33">
          <mxGeometry width="50" height="50" relative="1" as="geometry">
            <mxPoint x="180" y="870" as="sourcePoint" />
            <mxPoint x="640" y="880" as="targetPoint" />
            <Array as="points">
              <mxPoint x="670" y="870" />
            </Array>
          </mxGeometry>
        </mxCell>
        <mxCell id="sP4UEjbEszIV1HpJ8b8q-60" value="Notify host user is finished [user id]" style="edgeLabel;html=1;align=center;verticalAlign=middle;resizable=0;points=[];fontColor=#3333FF;" vertex="1" connectable="0" parent="sP4UEjbEszIV1HpJ8b8q-59">
          <mxGeometry x="-0.3725" y="3" relative="1" as="geometry">
            <mxPoint x="74" y="-7" as="offset" />
          </mxGeometry>
        </mxCell>
        <mxCell id="sP4UEjbEszIV1HpJ8b8q-66" style="edgeStyle=orthogonalEdgeStyle;rounded=0;orthogonalLoop=1;jettySize=auto;html=1;exitX=0.5;exitY=0;exitDx=0;exitDy=0;entryX=0;entryY=0.5;entryDx=0;entryDy=0;strokeColor=#FFB366;dashed=1;" edge="1" parent="1" source="sP4UEjbEszIV1HpJ8b8q-61" target="sP4UEjbEszIV1HpJ8b8q-3">
          <mxGeometry relative="1" as="geometry" />
        </mxCell>
        <mxCell id="sP4UEjbEszIV1HpJ8b8q-67" value="User goes back to login (by himself)" style="edgeLabel;html=1;align=center;verticalAlign=middle;resizable=0;points=[];fontColor=#FFB366;" vertex="1" connectable="0" parent="sP4UEjbEszIV1HpJ8b8q-66">
          <mxGeometry x="0.1283" relative="1" as="geometry">
            <mxPoint x="44" y="-10" as="offset" />
          </mxGeometry>
        </mxCell>
        <mxCell id="sP4UEjbEszIV1HpJ8b8q-61" value="&lt;font style=&quot;color: rgb(255, 179, 102);&quot;&gt;refresh&lt;/font&gt;" style="rounded=1;whiteSpace=wrap;html=1;dashed=1;strokeColor=#FFB366;" vertex="1" parent="1">
          <mxGeometry x="-140" y="450" width="120" height="60" as="geometry" />
        </mxCell>
        <mxCell id="sP4UEjbEszIV1HpJ8b8q-71" style="edgeStyle=orthogonalEdgeStyle;rounded=0;orthogonalLoop=1;jettySize=auto;html=1;entryX=1;entryY=0.75;entryDx=0;entryDy=0;strokeColor=#FFB366;dashed=1;" edge="1" parent="1" source="sP4UEjbEszIV1HpJ8b8q-68" target="sP4UEjbEszIV1HpJ8b8q-4">
          <mxGeometry relative="1" as="geometry">
            <Array as="points">
              <mxPoint x="580" y="485" />
            </Array>
          </mxGeometry>
        </mxCell>
        <mxCell id="sP4UEjbEszIV1HpJ8b8q-72" style="edgeStyle=orthogonalEdgeStyle;rounded=0;orthogonalLoop=1;jettySize=auto;html=1;entryX=1;entryY=0.5;entryDx=0;entryDy=0;strokeColor=#FFB366;dashed=1;" edge="1" parent="1" source="sP4UEjbEszIV1HpJ8b8q-68" target="sP4UEjbEszIV1HpJ8b8q-28">
          <mxGeometry relative="1" as="geometry">
            <Array as="points">
              <mxPoint x="580" y="620" />
            </Array>
          </mxGeometry>
        </mxCell>
        <mxCell id="sP4UEjbEszIV1HpJ8b8q-73" style="edgeStyle=orthogonalEdgeStyle;rounded=0;orthogonalLoop=1;jettySize=auto;html=1;entryX=1;entryY=1;entryDx=0;entryDy=0;strokeColor=#FFB366;dashed=1;" edge="1" parent="1" source="sP4UEjbEszIV1HpJ8b8q-68" target="sP4UEjbEszIV1HpJ8b8q-36">
          <mxGeometry relative="1" as="geometry">
            <Array as="points">
              <mxPoint x="580" y="800" />
            </Array>
          </mxGeometry>
        </mxCell>
        <mxCell id="sP4UEjbEszIV1HpJ8b8q-74" style="edgeStyle=orthogonalEdgeStyle;rounded=0;orthogonalLoop=1;jettySize=auto;html=1;entryX=1;entryY=0.75;entryDx=0;entryDy=0;strokeColor=#FFB366;dashed=1;" edge="1" parent="1" source="sP4UEjbEszIV1HpJ8b8q-68" target="sP4UEjbEszIV1HpJ8b8q-48">
          <mxGeometry relative="1" as="geometry">
            <Array as="points">
              <mxPoint x="580" y="935" />
            </Array>
          </mxGeometry>
        </mxCell>
        <mxCell id="sP4UEjbEszIV1HpJ8b8q-75" value="Notify user state" style="edgeLabel;html=1;align=center;verticalAlign=middle;resizable=0;points=[];fontColor=#FFB366;" vertex="1" connectable="0" parent="sP4UEjbEszIV1HpJ8b8q-74">
          <mxGeometry x="-0.5704" relative="1" as="geometry">
            <mxPoint x="50" y="58" as="offset" />
          </mxGeometry>
        </mxCell>
        <mxCell id="sP4UEjbEszIV1HpJ8b8q-68" value="&lt;font style=&quot;color: rgb(255, 179, 102);&quot;&gt;Go over event log to retrieve the user its state [user id]&lt;/font&gt;" style="rounded=1;whiteSpace=wrap;html=1;dashed=1;strokeColor=#FFB366;" vertex="1" parent="1">
          <mxGeometry x="520" y="370" width="120" height="60" as="geometry" />
        </mxCell>
      </root>
    </mxGraphModel>
  </diagram>
</mxfile>
